<svg width="32" height="32" viewBox="0 0 32 32" fill="none" xmlns="http://www.w3.org/2000/svg">
<g clip-path="url(#clip0_244_1443)">
<path d="M20.6666 1.3335H9.99996C8.15996 1.3335 6.66663 2.82683 6.66663 4.66683V27.3335C6.66663 29.1735 8.15996 30.6668 9.99996 30.6668H20.6666C22.5066 30.6668 24 29.1735 24 27.3335V4.66683C24 2.82683 22.5066 1.3335 20.6666 1.3335ZM15.3333 29.3335C14.2266 29.3335 13.3333 28.4402 13.3333 27.3335C13.3333 26.2268 14.2266 25.3335 15.3333 25.3335C16.44 25.3335 17.3333 26.2268 17.3333 27.3335C17.3333 28.4402 16.44 29.3335 15.3333 29.3335ZM21.3333 24.0002H9.33329V5.3335H21.3333V24.0002Z" fill="#DFBA45"/>
</g>
<defs>
<clipPath id="clip0_244_1443">
<rect width="32" height="32" fill="white"/>
</clipPath>
</defs>
</svg>
