<svg width="104" height="104" viewBox="0 0 104 104" fill="none" xmlns="http://www.w3.org/2000/svg">
<path d="M47.6665 73.6667H56.3332V56.3334H73.6665V47.6667H56.3332V30.3334H47.6665V47.6667H30.3332V56.3334H47.6665V73.6667ZM51.9998 95.3333C46.0054 95.3333 40.3721 94.2139 35.0998 91.975C29.8276 89.6639 25.2415 86.5583 21.3415 82.6583C17.4415 78.7583 14.3359 74.1722 12.0248 68.9C9.78595 63.6278 8.6665 57.9945 8.6665 52C8.6665 46.0056 9.78595 40.3722 12.0248 35.1C14.3359 29.8278 17.4415 25.2417 21.3415 21.3417C25.2415 17.4417 29.8276 14.3722 35.0998 12.1334C40.3721 9.82224 46.0054 8.66669 51.9998 8.66669C57.9943 8.66669 63.6276 9.82224 68.8998 12.1334C74.1721 14.3722 78.7582 17.4417 82.6582 21.3417C86.5582 25.2417 89.6276 29.8278 91.8665 35.1C94.1776 40.3722 95.3332 46.0056 95.3332 52C95.3332 57.9945 94.1776 63.6278 91.8665 68.9C89.6276 74.1722 86.5582 78.7583 82.6582 82.6583C78.7582 86.5583 74.1721 89.6639 68.8998 91.975C63.6276 94.2139 57.9943 95.3333 51.9998 95.3333ZM51.9998 86.6667C61.6776 86.6667 69.8748 83.3083 76.5915 76.5917C83.3082 69.875 86.6665 61.6778 86.6665 52C86.6665 42.3222 83.3082 34.125 76.5915 27.4084C69.8748 20.6917 61.6776 17.3334 51.9998 17.3334C42.3221 17.3334 34.1248 20.6917 27.4082 27.4084C20.6915 34.125 17.3332 42.3222 17.3332 52C17.3332 61.6778 20.6915 69.875 27.4082 76.5917C34.1248 83.3083 42.3221 86.6667 51.9998 86.6667Z" fill="white"/>
</svg>
